<svg width="44" height="27" viewBox="0 0 44 27" fill="none" xmlns="http://www.w3.org/2000/svg">
<path d="M12.3996 9.44737C12.3996 9.98267 12.4582 10.4167 12.5606 10.735C12.6777 11.0533 12.824 11.4005 13.0289 11.7767C13.1021 11.8924 13.1313 12.0081 13.1313 12.1094C13.1313 12.2541 13.0435 12.3988 12.8533 12.5434L11.9314 13.1511C11.7996 13.2379 11.6679 13.2813 11.5509 13.2813C11.4045 13.2813 11.2582 13.209 11.1119 13.0787C10.907 12.8617 10.7314 12.6303 10.585 12.3988C10.4387 12.1528 10.2924 11.8779 10.1314 11.5452C8.98993 12.8762 7.55581 13.5417 5.829 13.5417C4.59975 13.5417 3.61928 13.1945 2.90222 12.5C2.18515 11.8056 1.81931 10.8797 1.81931 9.72226C1.81931 8.49251 2.25832 7.49424 3.15099 6.74192C4.04366 5.9896 5.22901 5.61345 6.73631 5.61345C7.23386 5.61345 7.74605 5.65685 8.2875 5.72919C8.82896 5.80153 9.38505 5.91727 9.97041 6.04748V4.99134C9.97041 3.8918 9.73626 3.12501 9.28261 2.67651C8.81433 2.22802 8.02409 2.011 6.89728 2.011C6.38509 2.011 5.85827 2.06887 5.31682 2.19908C4.77536 2.32929 4.24854 2.48843 3.73635 2.69098C3.50221 2.79226 3.3266 2.85013 3.22416 2.87906C3.12173 2.908 3.04856 2.92246 2.99002 2.92246C2.78515 2.92246 2.68271 2.77779 2.68271 2.47397V1.76505C2.68271 1.53357 2.71198 1.35996 2.78515 1.25868C2.85831 1.15741 2.99002 1.05614 3.1949 0.954864C3.70708 0.694447 4.32171 0.477432 5.03877 0.30382C5.75583 0.115741 6.5168 0.0289353 7.32167 0.0289353C9.0631 0.0289353 10.3363 0.419562 11.1558 1.20081C11.9606 1.98207 12.3704 3.16841 12.3704 4.75985V9.44737H12.3996ZM6.45826 11.6465C6.94118 11.6465 7.43874 11.5596 7.96556 11.386C8.49238 11.2124 8.96067 10.8941 9.35578 10.4601C9.58993 10.1852 9.76553 9.8814 9.85334 9.53418C9.94114 9.18695 9.99968 8.76739 9.99968 8.27549V7.66785C9.57529 7.56658 9.12164 7.47977 8.65335 7.4219C8.18507 7.36403 7.73142 7.3351 7.27776 7.3351C6.29729 7.3351 5.58023 7.52317 5.09731 7.9138C4.61439 8.30443 4.38024 8.8542 4.38024 9.57758C4.38024 10.2576 4.55585 10.7639 4.9217 11.1112C5.27291 11.4728 5.7851 11.6465 6.45826 11.6465ZM18.2093 13.209C17.9459 13.209 17.7703 13.1656 17.6532 13.0643C17.5362 12.9775 17.4337 12.7749 17.3459 12.5L13.9069 1.31656C13.8191 1.0272 13.7752 0.839123 13.7752 0.73785C13.7752 0.506367 13.8923 0.376159 14.1264 0.376159H15.5606C15.8386 0.376159 16.0289 0.419562 16.1313 0.520835C16.2484 0.607641 16.3362 0.810188 16.424 1.08507L18.8825 10.6627L21.1654 1.08507C21.2385 0.79572 21.3263 0.607641 21.4434 0.520835C21.5605 0.434029 21.7654 0.376159 22.0288 0.376159H23.1995C23.4775 0.376159 23.6678 0.419562 23.7848 0.520835C23.9019 0.607641 24.0044 0.810188 24.0629 1.08507L26.375 10.7784L28.9067 1.08507C28.9945 0.79572 29.097 0.607641 29.1994 0.520835C29.3165 0.434029 29.5067 0.376159 29.7701 0.376159H31.1311C31.3652 0.376159 31.4969 0.4919 31.4969 0.73785C31.4969 0.810188 31.4823 0.882526 31.4677 0.969332C31.453 1.05614 31.4238 1.17188 31.3652 1.33102L27.8384 12.5145C27.7506 12.8039 27.6482 12.9919 27.5311 13.0787C27.4141 13.1656 27.2238 13.2234 26.975 13.2234H25.7165C25.4385 13.2234 25.2482 13.18 25.1312 13.0787C25.0141 12.9775 24.9117 12.7894 24.8531 12.5L22.5849 3.16841L20.3312 12.4856C20.2581 12.7749 20.1703 12.963 20.0532 13.0643C19.9361 13.1656 19.7312 13.209 19.4678 13.209H18.2093ZM37.0139 13.5996C36.253 13.5996 35.492 13.5128 34.7603 13.3392C34.0286 13.1656 33.4579 12.9775 33.0774 12.7605C32.8432 12.6303 32.6823 12.4856 32.6237 12.3554C32.5652 12.2252 32.5359 12.0805 32.5359 11.9503V11.2124C32.5359 10.9086 32.653 10.7639 32.8725 10.7639C32.9603 10.7639 33.0481 10.7784 33.1359 10.8073C33.2237 10.8363 33.3554 10.8941 33.5018 10.952C33.9993 11.169 34.5408 11.3426 35.1115 11.4584C35.6969 11.5741 36.2676 11.632 36.8529 11.632C37.7749 11.632 38.4919 11.4728 38.9895 11.1546C39.4871 10.8363 39.7505 10.3733 39.7505 9.78013C39.7505 9.37503 39.6188 9.04228 39.3554 8.76739C39.0919 8.49251 38.5944 8.24656 37.8773 8.01507L35.7554 7.36403C34.6871 7.03127 33.8969 6.53937 33.414 5.88833C32.9311 5.25175 32.6823 4.54284 32.6823 3.79052C32.6823 3.18288 32.814 2.64758 33.0774 2.18461C33.3408 1.72165 33.692 1.31656 34.131 0.998267C34.5701 0.665512 35.0676 0.419562 35.653 0.24595C36.2383 0.0723382 36.8529 0 37.4968 0C37.8188 0 38.1554 0.0144676 38.4773 0.0578706C38.8139 0.101274 39.1212 0.159144 39.4285 0.217015C39.7212 0.289353 39.9992 0.361691 40.2627 0.448497C40.5261 0.535303 40.7309 0.622109 40.8773 0.708915C41.0822 0.824656 41.2285 0.940397 41.3163 1.07061C41.4041 1.18635 41.448 1.34549 41.448 1.54804V2.22802C41.448 2.53184 41.3309 2.69098 41.1114 2.69098C40.9944 2.69098 40.8041 2.63311 40.5553 2.51737C39.7212 2.14121 38.7846 1.95313 37.7456 1.95313C36.9115 1.95313 36.253 2.08334 35.7993 2.35823C35.3457 2.63311 35.1115 3.05267 35.1115 3.64585C35.1115 4.05094 35.2578 4.39816 35.5505 4.67305C35.8432 4.94793 36.3847 5.22282 37.1603 5.46877L39.2383 6.11981C40.2919 6.45257 41.0529 6.91553 41.5065 7.50871C41.9602 8.10188 42.1797 8.78186 42.1797 9.53418C42.1797 10.1563 42.048 10.7205 41.7992 11.2124C41.5358 11.7043 41.1846 12.1384 40.7309 12.4856C40.2773 12.8473 39.7358 13.1077 39.1066 13.2958C38.448 13.4983 37.7603 13.5996 37.0139 13.5996Z" fill="#9F9FA9"/>
<path fill-rule="evenodd" clip-rule="evenodd" d="M39.7797 20.631C34.9652 24.1466 27.9701 26.0129 21.9556 26.0129C13.5264 26.0129 5.93143 22.9313 0.194927 17.8098C-0.258725 17.4047 0.151025 16.8549 0.69248 17.1732C6.89727 20.7322 14.5508 22.8879 22.4678 22.8879C27.8092 22.8879 33.6774 21.7884 39.0773 19.5314C39.8822 19.1697 40.57 20.0522 39.7797 20.631Z" fill="#FF9900"/>
<path fill-rule="evenodd" clip-rule="evenodd" d="M41.7846 18.3741C41.1699 17.5928 37.7163 17.9979 36.1505 18.186C35.6822 18.2439 35.609 17.8388 36.0334 17.535C38.7846 15.6252 43.3065 16.175 43.8333 16.8116C44.3601 17.4626 43.687 21.9331 41.1114 24.0743C40.7163 24.4071 40.3358 24.2335 40.5114 23.7995C41.0968 22.3672 42.3992 19.1409 41.7846 18.3741Z" fill="#FF9900"/>
</svg>
