<svg width="44" height="44" viewBox="0 0 44 44" fill="none" xmlns="http://www.w3.org/2000/svg">
<path d="M17.6 21.4214V30.25C17.6 31.1608 16.8608 31.9 15.95 31.9C15.0392 31.9 14.3 31.1608 14.3 30.25V15.95C14.3 15.2251 14.7741 14.5849 15.4682 14.3715C16.1579 14.1625 16.9136 14.4254 17.3184 15.0271L17.5923 15.4341L17.6 15.4L34.3574 40.2006C40.1764 36.2417 44 29.568 44 22C44 9.8494 34.1506 0 22 0C9.8494 0 0 9.8494 0 22C0 34.1506 9.8494 44 22 44C25.3902 44 28.589 43.2102 31.4567 41.8407L17.6 21.4214ZM26.4 13.75C26.4 12.8392 27.1392 12.1 28.05 12.1C28.9608 12.1 29.7 12.8392 29.7 13.75V27.819L26.4 23.0846V13.75Z" fill="#12B886"/>
</svg>
