<svg width="44" height="44" viewBox="0 0 44 44" fill="none" xmlns="http://www.w3.org/2000/svg">
<path d="M21.0517 43.9807C15.7005 43.786 12.3884 42.1966 11.5457 39.4192L11.4477 39.0964L11.434 33.6515C11.4183 27.4197 11.4238 27.2934 11.755 26.3011C12.3594 24.4904 13.7885 23.323 16.0236 22.8141L16.5178 22.7016L22.6633 22.6743C27.0662 22.6548 28.8918 22.6327 29.1019 22.5965C30.3324 22.3839 31.1397 22.0657 31.8975 21.4944C32.8029 20.812 33.5502 19.6438 33.8842 18.389C34.135 17.4466 34.1283 17.5495 34.1554 14.239L34.1806 11.1615H36.3938H38.607L39.0368 11.2817C41.3394 11.9257 43.0111 14.1107 43.7229 17.4065C43.9966 18.6742 43.9995 18.7211 44 21.955C44.0004 25.1021 43.999 25.1296 43.7795 26.162C43.5637 27.1766 43.2813 28.0023 42.8592 28.8522C42.008 30.5661 40.7529 31.7262 39.1657 32.2659C38.2591 32.5741 39.018 32.5483 30.098 32.5739L22.0616 32.5969V33.3286V34.0604L27.3905 34.0819L32.7194 34.1034L32.7409 36.729C32.7527 38.1731 32.7476 39.4786 32.7295 39.63C32.6856 39.9964 32.5305 40.4312 32.3084 40.8098C32.0798 41.1996 31.3857 41.8969 30.9145 42.2101C29.4833 43.1614 27.3012 43.7413 24.4252 43.9346C23.4576 43.9997 22.0872 44.0184 21.0517 43.9807ZM28.4434 40.5784C29.4706 40.4116 30.2058 39.4048 30.0365 38.3969C29.8968 37.5656 29.256 36.9226 28.4307 36.7856C27.1708 36.5765 26.025 37.7353 26.2492 38.9918C26.4123 39.9058 27.1441 40.5493 28.0996 40.6191C28.1351 40.6216 28.2898 40.6034 28.4434 40.5784ZM5.54533 32.812C4.33657 32.5919 3.14621 31.8581 2.30506 30.8146C0.7118 28.8381 -0.0925025 25.543 0.00846641 21.4057C0.0713881 18.8275 0.456217 16.9137 1.23908 15.2855C2.24817 13.1869 3.75591 11.9424 5.7913 11.528C6.23712 11.4372 6.25947 11.4369 14.1116 11.4401C18.4419 11.4418 22.0167 11.431 22.0555 11.4161C22.1171 11.3924 22.1261 11.2965 22.1261 10.6619C22.1261 10.2619 22.1212 9.93009 22.1153 9.9244C22.1094 9.91871 19.7066 9.90418 16.7757 9.89211L11.4468 9.87017L11.4357 7.09618C11.4236 4.05794 11.4211 4.09317 11.6808 3.53519C12.5812 1.60087 15.2333 0.425628 19.4831 0.0777493C19.7904 0.0525979 20.6219 0.0206349 21.331 0.0067161C26.0361 -0.0856393 29.4875 0.776062 31.3017 2.49608C31.5027 2.68662 31.7646 2.97105 31.8837 3.12813C32.1547 3.48529 32.4919 4.16717 32.621 4.61891L32.7194 4.96326V10.688C32.7194 16.0317 32.7143 16.4399 32.6417 16.8216C32.5481 17.3142 32.3232 18.0062 32.1357 18.3786C31.4868 19.6677 30.291 20.5964 28.706 21.0425C27.6767 21.3322 28.1442 21.3131 21.331 21.3427C14.565 21.3721 14.9738 21.3564 14.0253 21.6249C12.1829 22.1464 10.8294 23.5836 10.2795 25.6024C10.0324 26.5099 10.0378 26.4251 10.0108 29.7561L9.98559 32.8552L7.92278 32.8622C6.36557 32.8676 5.78285 32.8553 5.54533 32.812ZM16.8095 7.06199C17.5916 6.69399 18.0626 5.83138 17.921 5.0263C17.7904 4.28367 17.2813 3.691 16.5903 3.47725C15.4861 3.13564 14.3339 3.84056 14.1301 4.9824C13.9644 5.91105 14.5007 6.81512 15.4076 7.13613C15.6103 7.20787 15.7406 7.2224 16.0881 7.21205C16.4666 7.20077 16.5526 7.18288 16.8095 7.06199Z" fill="#FED142"/>
<path d="M5.54533 32.812C4.33657 32.5919 3.14621 31.8581 2.30506 30.8146C0.7118 28.8381 -0.0925025 25.543 0.00846641 21.4057C0.0713881 18.8275 0.456217 16.9137 1.23908 15.2855C2.24818 13.1869 3.75591 11.9424 5.7913 11.528C6.23712 11.4372 6.25947 11.4369 14.1116 11.4401C18.4419 11.4418 22.0167 11.431 22.0555 11.4161C22.1171 11.3924 22.1261 11.2965 22.1261 10.6619C22.1261 10.2619 22.1212 9.93008 22.1153 9.9244C22.1094 9.91871 19.7066 9.90418 16.7757 9.89211L11.4468 9.87017L11.4357 7.09618C11.4236 4.05794 11.4211 4.09317 11.6808 3.53519C12.5812 1.60087 15.2333 0.425628 19.4831 0.0777493C19.7904 0.0525979 20.6219 0.0206349 21.331 0.0067161C26.0361 -0.0856393 29.4875 0.776062 31.3017 2.49608C31.5027 2.68662 31.7646 2.97105 31.8837 3.12813C32.1547 3.48529 32.4919 4.16717 32.621 4.61891L32.7195 4.96326V10.688C32.7195 16.0317 32.7143 16.4399 32.6417 16.8216C32.5481 17.3142 32.3232 18.0062 32.1357 18.3786C31.4868 19.6677 30.291 20.5964 28.706 21.0425C27.6768 21.3322 28.1442 21.3131 21.331 21.3427C14.565 21.3721 14.9738 21.3564 14.0253 21.6249C12.1829 22.1464 10.8294 23.5836 10.2795 25.6024C10.0324 26.5099 10.0378 26.4251 10.0108 29.7561L9.98559 32.8551L7.92278 32.8622C6.36557 32.8676 5.78285 32.8553 5.54533 32.812ZM16.8095 7.06199C17.5916 6.69399 18.0626 5.83138 17.921 5.0263C17.7904 4.28367 17.2813 3.691 16.5903 3.47725C15.4861 3.13564 14.3339 3.84056 14.1301 4.9824C13.9644 5.91105 14.5007 6.81512 15.4076 7.13612C15.6103 7.20786 15.7406 7.2224 16.0881 7.21205C16.4666 7.20077 16.5526 7.18288 16.8095 7.06199Z" fill="#3571A3"/>
</svg>
