<svg width="275" height="60" viewBox="0 0 275 60" fill="none" xmlns="http://www.w3.org/2000/svg">
<g clip-path="url(#clip0_30_7)">
<path d="M0.121948 57.4726L0.446451 0.306458L12.3224 0.374042L12.2004 21.8671L12.5628 21.8692C13.0897 20.7184 13.8491 19.5504 14.8408 18.365C15.8513 17.1612 17.158 16.1637 18.7608 15.3726C20.3824 14.563 22.392 14.165 24.7894 14.1787C27.9117 14.1965 30.7878 15.0316 33.4176 16.6842C36.0475 18.3182 38.143 20.7773 39.7042 24.0614C41.2654 27.3269 42.0321 31.4161 42.0042 36.3288C41.9771 41.1112 41.1829 45.1449 39.6216 48.4298C38.079 51.6963 35.9834 54.1688 33.3347 55.847C30.7047 57.507 27.7635 58.3279 24.511 58.3093C22.2065 58.2963 20.2479 57.9033 18.6353 57.1312C17.0413 56.3591 15.7365 55.3935 14.7209 54.234C13.7053 53.0558 12.9315 51.8698 12.3993 50.6754L11.8696 50.6726L11.8306 57.5391L0.121948 57.4726ZM11.8687 36.1014C11.8542 38.6508 12.1947 40.8766 12.8901 42.7787C13.5856 44.6808 14.5994 46.166 15.9315 47.2344C17.2637 48.2842 18.887 48.8144 20.8013 48.8251C22.7341 48.8363 24.3726 48.3154 25.7168 47.2619C27.061 46.1904 28.0824 44.7075 28.7808 42.8133C29.4979 40.9006 29.8635 38.6975 29.8777 36.2039C29.8917 33.7289 29.5603 31.5498 28.8833 29.6664C28.2063 27.783 27.2018 26.3071 25.8697 25.2388C24.5376 24.1705 22.8958 23.6308 20.9443 23.6197C19.0115 23.6087 17.3731 24.1111 16.0291 25.127C14.7038 26.1429 13.6826 27.5887 12.9657 29.4641C12.2488 31.3396 11.8831 33.552 11.8687 36.1014ZM67.9821 58.6963C63.5775 58.6712 59.7911 57.7563 56.6235 55.9516C53.474 54.1288 51.0538 51.5656 49.3629 48.2619C47.6716 44.9399 46.8392 41.0179 46.8647 36.496C46.8898 32.0857 47.7668 28.22 49.4953 24.8987C51.2243 21.5775 53.6454 18.9953 56.7601 17.152C59.8928 15.3089 63.5594 14.3993 67.7596 14.4232C70.5844 14.4393 73.2118 14.9102 75.6412 15.8359C78.0893 16.743 80.2192 18.1043 82.0303 19.9198C83.8597 21.7353 85.2778 24.0137 86.2845 26.755C87.2916 29.4777 87.7844 32.6627 87.7635 36.31L87.7454 39.5759L51.5876 39.3701L51.6294 32.001L76.6079 32.1432C76.6177 30.4312 76.2549 28.9124 75.5186 27.587C74.7828 26.2615 73.7571 25.2229 72.442 24.471C71.1451 23.7007 69.6326 23.3106 67.9045 23.3007C66.1017 23.2905 64.5009 23.7001 63.1023 24.5295C61.7221 25.3405 60.6379 26.4415 59.8496 27.8328C59.0613 29.2054 58.653 30.7383 58.6247 32.4316L58.5847 39.4378C58.5727 41.5592 58.9526 43.3944 59.7247 44.9434C60.5148 46.4924 61.6325 47.6898 63.0776 48.5354C64.5223 49.3809 66.2392 49.8098 68.2279 49.8209C69.5471 49.8284 70.7563 49.6493 71.8549 49.2833C72.9535 48.9172 73.8955 48.3642 74.6801 47.6247C75.4652 46.8847 76.0649 45.9762 76.4797 44.8992L87.4597 45.6874C86.887 48.3265 85.7308 50.6275 83.9916 52.5902C82.2705 54.5344 80.0501 56.0479 77.3303 57.1302C74.6295 58.1944 71.5135 58.7163 67.9821 58.6963Z" fill="white"/>
<path d="M100.932 0.878309L114.485 44.3897L115.015 44.3927L129.089 1.03855L142.47 1.1147L122.464 58.1689L106.908 58.0805L87.5229 0.802002L100.932 0.878309ZM161.972 59.2312C157.642 59.2065 153.902 58.2637 150.753 56.4037C147.623 54.5251 145.212 51.9247 143.521 48.6023C141.83 45.2617 140.997 41.3956 141.022 37.0039C141.047 32.575 141.924 28.7093 143.653 25.4066C145.382 22.0854 147.822 19.5126 150.973 17.6882C154.143 15.8453 157.893 14.9362 162.224 14.9608C166.554 14.9855 170.284 15.9372 173.414 17.8159C176.563 19.6762 178.984 22.2766 180.675 25.6173C182.365 28.9394 183.198 32.8149 183.173 37.2438C183.149 41.6355 182.272 45.4919 180.543 48.813C178.814 52.1158 176.365 54.6884 173.195 56.5316C170.043 58.3558 166.303 59.2558 161.972 59.2312ZM162.08 50.02C164.051 50.0312 165.698 49.4823 167.024 48.3735C168.35 47.2456 169.353 45.7068 170.034 43.7567C170.732 41.8067 171.089 39.5849 171.103 37.0914C171.117 34.5978 170.786 32.3721 170.109 30.4142C169.451 28.4565 168.466 26.9063 167.153 25.7637C165.839 24.621 164.198 24.0441 162.228 24.0329C160.239 24.0216 158.564 24.5796 157.2 25.707C155.856 26.8346 154.834 28.3733 154.135 30.3233C153.455 32.2735 153.108 34.4953 153.094 36.9889C153.08 39.4824 153.402 41.7081 154.059 43.6658C154.736 45.6236 155.74 47.174 157.072 48.3168C158.422 49.4409 160.092 50.0088 162.08 50.02ZM201.641 1.45143L201.316 58.6177L189.44 58.5498L189.765 1.38385L201.641 1.45143ZM232.514 15.9191L232.464 24.8513L206.677 24.7046L206.728 15.7724L232.514 15.9191ZM212.64 5.53364L224.516 5.60122L224.289 45.5728C224.283 46.6707 224.446 47.5279 224.776 48.1437C225.107 48.7409 225.57 49.1623 226.163 49.4079C226.775 49.653 227.481 49.7782 228.28 49.7828C228.837 49.7861 229.395 49.7423 229.953 49.6526C230.511 49.5442 230.939 49.4628 231.237 49.4088L233.055 58.2679C232.459 58.4507 231.621 58.6595 230.542 58.8954C229.462 59.1498 228.152 59.3005 226.608 59.3475C223.746 59.4428 221.239 59.0475 219.088 58.1605C216.956 57.2735 215.3 55.9056 214.121 54.0568C212.942 52.2075 212.37 49.8782 212.405 47.0684L212.64 5.53364ZM238.45 58.8289L238.49 51.7391L259.601 25.8711L259.603 25.5641L239.364 25.4489L239.418 15.9584L273.958 16.155L273.914 23.8869L254.089 49.12L254.087 49.427L274.494 49.5433L274.44 59.0335L238.45 58.8289Z" fill="#61E4A3"/>
</g>
<defs>
<clipPath id="clip0_30_7">
<rect width="275" height="60" fill="white"/>
</clipPath>
</defs>
</svg>
