<svg width="134" height="60" viewBox="0 0 134 60" fill="none" xmlns="http://www.w3.org/2000/svg">
<path d="M1.12732 32.59C1.12732 30.27 1.59706 28.2433 2.53652 26.51C3.50283 24.7767 4.83151 23.4433 6.52255 22.51C8.24045 21.5767 10.1999 21.11 12.4009 21.11C15.2193 21.11 17.568 21.8433 19.4469 23.31C21.3527 24.7767 22.6008 26.8433 23.1914 29.51H15.8635C15.2462 27.8033 14.0517 26.95 12.2801 26.95C11.0186 26.95 10.012 27.4433 9.26043 28.43C8.50883 29.39 8.13307 30.7767 8.13307 32.59C8.13307 34.4033 8.50883 35.8033 9.26043 36.79C10.012 37.75 11.0186 38.23 12.2801 38.23C14.0517 38.23 15.2462 37.3767 15.8635 35.67H23.1914C22.6008 38.2833 21.3527 40.3367 19.4469 41.83C17.5412 43.3233 15.1925 44.07 12.4009 44.07C10.1999 44.07 8.24045 43.6033 6.52255 42.67C4.83151 41.7367 3.50283 40.4033 2.53652 38.67C1.59706 36.9367 1.12732 34.91 1.12732 32.59ZM37.101 44.07C34.8999 44.07 32.9136 43.6033 31.1421 42.67C29.3974 41.7367 28.015 40.4033 26.995 38.67C26.0018 36.9367 25.5053 34.91 25.5053 32.59C25.5053 30.2967 26.0153 28.2833 27.0352 26.55C28.0552 24.79 29.451 23.4433 31.2226 22.51C32.9942 21.5767 34.9804 21.11 37.1815 21.11C39.3826 21.11 41.3688 21.5767 43.1404 22.51C44.912 23.4433 46.3078 24.79 47.3277 26.55C48.3477 28.2833 48.8577 30.2967 48.8577 32.59C48.8577 34.8833 48.3343 36.91 47.2875 38.67C46.2675 40.4033 44.8583 41.7367 43.0599 42.67C41.2883 43.6033 39.302 44.07 37.101 44.07ZM37.101 38.15C38.4162 38.15 39.5301 37.67 40.4428 36.71C41.3822 35.75 41.852 34.3767 41.852 32.59C41.852 30.8033 41.3957 29.43 40.4831 28.47C39.5973 27.51 38.4968 27.03 37.1815 27.03C35.8394 27.03 34.7255 27.51 33.8397 28.47C32.9539 29.4033 32.511 30.7767 32.511 32.59C32.511 34.3767 32.9405 35.75 33.7994 36.71C34.6852 37.67 35.7857 38.15 37.101 38.15ZM51.1414 32.55C51.1414 30.2567 51.5709 28.2433 52.4298 26.51C53.3156 24.7767 54.5101 23.4433 56.0132 22.51C57.5163 21.5767 59.194 21.11 61.0461 21.11C62.5224 21.11 63.8645 21.4167 65.0724 22.03C66.3073 22.6433 67.2736 23.47 67.9713 24.51V14.15H74.8563V43.75H67.9713V40.55C67.3271 41.6167 66.401 42.47 65.1932 43.11C64.0123 43.75 62.6297 44.07 61.0461 44.07C59.194 44.07 57.5163 43.6033 56.0132 42.67C54.5101 41.71 53.3156 40.3633 52.4298 38.63C51.5709 36.87 51.1414 34.8433 51.1414 32.55ZM67.9713 32.59C67.9713 30.8833 67.4881 29.5367 66.5218 28.55C65.5826 27.5633 64.4282 27.07 63.0592 27.07C61.6903 27.07 60.5227 27.5633 59.5563 28.55C58.6169 29.51 58.1471 30.8433 58.1471 32.55C58.1471 34.2567 58.6169 35.6167 59.5563 36.63C60.5227 37.6167 61.6903 38.11 63.0592 38.11C64.4282 38.11 65.5826 37.6167 66.5218 36.63C67.4881 35.6433 67.9713 34.2967 67.9713 32.59ZM83.3001 19.11C82.0922 19.11 81.0989 18.7633 80.3207 18.07C79.5689 17.35 79.1933 16.47 79.1933 15.43C79.1933 14.3633 79.5689 13.4833 80.3207 12.79C81.0989 12.07 82.0922 11.71 83.3001 11.71C84.481 11.71 85.4473 12.07 86.1991 12.79C86.9773 13.4833 87.3667 14.3633 87.3667 15.43C87.3667 16.47 86.9773 17.35 86.1991 18.07C85.4473 18.7633 84.481 19.11 83.3001 19.11ZM86.7225 21.43V43.75H79.8375V21.43H86.7225ZM102.986 27.11H99.2807V43.75H92.3964V27.11H89.9001V21.43H92.3964V20.79C92.3964 18.0433 93.1878 15.9633 94.7719 14.55C96.3554 13.11 98.6774 12.39 101.737 12.39C102.247 12.39 102.623 12.4033 102.865 12.43V18.23C101.549 18.15 100.623 18.3367 100.087 18.79C99.5494 19.2433 99.2807 20.0567 99.2807 21.23V21.43H102.986V27.11ZM129.17 21.43L115.078 54.35H107.67L112.824 42.99L103.684 21.43H111.374L116.568 35.39L121.722 21.43H129.17Z" fill="#001334"/>
<path d="M129.596 44.375C132.028 44.375 134 42.4162 134 40C134 37.5838 132.028 35.625 129.596 35.625C127.164 35.625 125.192 37.5838 125.192 40C125.192 42.4162 127.164 44.375 129.596 44.375Z" fill="#1A75E8"/>
</svg>
