<svg width="630" height="120" viewBox="0 0 630 120" fill="none" xmlns="http://www.w3.org/2000/svg">
<path d="M187.979 33.3015H202.354L217.536 70.3352H218.182L233.364 33.3015H247.739V88.4211H236.433V52.5448H235.975L221.708 88.152H214.01L199.743 52.4103H199.285V88.4211H187.979V33.3015ZM264.205 103.923C262.752 103.923 261.388 103.807 260.114 103.573C258.857 103.359 257.817 103.08 256.992 102.739L259.576 94.1804C260.922 94.5935 262.133 94.8177 263.21 94.8537C264.305 94.8891 265.246 94.6383 266.036 94.0996C266.844 93.5615 267.498 92.6463 268.001 91.3547L268.674 89.6053L253.842 47.0814H265.901L274.461 77.4404H274.892L283.533 47.0814H295.673L279.603 92.8888C278.831 95.1139 277.781 97.0516 276.454 98.7019C275.144 100.371 273.483 101.654 271.473 102.551C269.463 103.466 267.041 103.923 264.205 103.923ZM301.756 88.4211V33.3015H338.258V42.9097H313.412V56.0437H335.835V65.652H313.412V88.4211H301.756ZM345.883 88.4211V47.0814H357.35V88.4211H345.883ZM351.643 41.7524C349.938 41.7524 348.476 41.1872 347.255 40.0568C346.053 38.9085 345.452 37.5359 345.452 35.939C345.452 34.36 346.053 33.0054 347.255 31.875C348.476 30.7267 349.938 30.1525 351.643 30.1525C353.348 30.1525 354.801 30.7267 356.004 31.875C357.224 33.0054 357.834 34.36 357.834 35.939C357.834 37.5359 357.224 38.9085 356.004 40.0568C354.801 41.1872 353.348 41.7524 351.643 41.7524ZM378.003 64.5215V88.4211H366.535V47.0814H377.464V54.375H377.949C378.864 51.9707 380.398 50.0688 382.552 48.6693C384.705 47.2518 387.317 46.5431 390.385 46.5431C393.256 46.5431 395.76 47.1711 397.895 48.427C400.031 49.683 401.691 51.4773 402.876 53.8098C404.06 56.1244 404.652 58.8875 404.652 62.0993V88.4211H393.185V64.1444C393.203 61.6148 392.556 59.6411 391.246 58.2237C389.937 56.7883 388.133 56.0706 385.836 56.0706C384.293 56.0706 382.929 56.4025 381.745 57.0664C380.578 57.7302 379.662 58.6991 378.999 59.9731C378.353 61.2291 378.021 62.7452 378.003 64.5215ZM425.48 89.2017C422.842 89.2017 420.491 88.7438 418.428 87.8286C416.364 86.8958 414.73 85.5234 413.528 83.7114C412.344 81.8811 411.751 79.6023 411.751 76.8752C411.751 74.5781 412.173 72.6493 413.017 71.0886C413.86 69.5274 415.009 68.2718 416.462 67.3206C417.916 66.3695 419.567 65.652 421.415 65.1676C423.281 64.6832 425.238 64.3421 427.283 64.1444C429.688 63.8937 431.626 63.66 433.098 63.4453C434.57 63.2116 435.637 62.8708 436.301 62.4222C436.965 61.9737 437.297 61.3098 437.297 60.4306V60.2691C437.297 58.5646 436.758 57.2458 435.682 56.3128C434.623 55.3798 433.116 54.9133 431.16 54.9133C429.096 54.9133 427.454 55.3708 426.234 56.2859C425.014 57.183 424.206 58.3134 423.811 59.677L413.205 58.8158C413.744 56.3038 414.802 54.1328 416.382 52.3026C417.961 50.4546 419.997 49.0371 422.492 48.0502C425.005 47.0454 427.912 46.5431 431.214 46.5431C433.51 46.5431 435.709 46.8122 437.808 47.3505C439.926 47.8888 441.801 48.7231 443.435 49.8535C445.085 50.9838 446.387 52.4372 447.338 54.2135C448.289 55.9719 448.764 58.0801 448.764 60.5383V88.4211H437.889V82.6882H437.566C436.902 83.9804 436.014 85.1198 434.901 86.1063C433.789 87.0752 432.452 87.8381 430.891 88.3939C429.329 88.9326 427.526 89.2017 425.48 89.2017ZM428.764 81.2886C430.451 81.2886 431.941 80.9571 433.232 80.2933C434.525 79.6112 435.539 78.696 436.274 77.5478C437.01 76.3996 437.378 75.0985 437.378 73.6453V69.2583C437.019 69.4914 436.525 69.7067 435.897 69.9044C435.287 70.0838 434.596 70.2543 433.825 70.4154C433.053 70.5594 432.281 70.6939 431.51 70.8196C430.738 70.9269 430.038 71.0255 429.41 71.1152C428.064 71.3128 426.888 71.6267 425.884 72.0575C424.879 72.4882 424.098 73.0712 423.542 73.8069C422.985 74.5244 422.707 75.4219 422.707 76.4981C422.707 78.0594 423.273 79.2524 424.403 80.0779C425.552 80.8851 427.005 81.2886 428.764 81.2886ZM469.128 64.5215V88.4211H457.661V47.0814H468.59V54.375H469.074C469.989 51.9707 471.524 50.0688 473.677 48.6693C475.831 47.2518 478.442 46.5431 481.511 46.5431C484.382 46.5431 486.885 47.1711 489.021 48.427C491.156 49.683 492.816 51.4773 494 53.8098C495.185 56.1244 495.777 58.8875 495.777 62.0993V88.4211H484.31V64.1444C484.328 61.6148 483.682 59.6411 482.372 58.2237C481.062 56.7883 479.258 56.0706 476.961 56.0706C475.418 56.0706 474.054 56.4025 472.87 57.0664C471.703 57.7302 470.788 58.6991 470.124 59.9731C469.478 61.2291 469.146 62.7452 469.128 64.5215ZM523.496 89.2282C519.261 89.2282 515.618 88.3314 512.567 86.5371C509.535 84.7251 507.202 82.2126 505.569 79.0011C503.954 75.7895 503.146 72.0935 503.146 67.9124C503.146 63.6783 503.963 59.9641 505.595 56.7704C507.247 53.5586 509.588 51.0556 512.621 49.2614C515.654 47.4491 519.261 46.5431 523.442 46.5431C527.049 46.5431 530.208 47.198 532.918 48.5078C535.628 49.8176 537.772 51.6567 539.351 54.0251C540.931 56.3936 541.801 59.1747 541.962 62.3684H531.141C530.836 60.3051 530.028 58.6453 528.718 57.3894C527.426 56.1154 525.73 55.4785 523.631 55.4785C521.854 55.4785 520.302 55.9629 518.974 56.9318C517.664 57.8828 516.641 59.2733 515.905 61.1035C515.169 62.9336 514.802 65.1493 514.802 67.7514C514.802 70.3888 515.16 72.6316 515.879 74.4796C516.614 76.3276 517.646 77.736 518.974 78.7048C520.302 79.6743 521.854 80.1587 523.631 80.1587C524.941 80.1587 526.116 79.8891 527.157 79.3509C528.216 78.8128 529.086 78.0322 529.768 77.0097C530.468 75.9688 530.926 74.7221 531.141 73.2688H541.962C541.783 76.4267 540.921 79.2076 539.378 81.612C537.853 83.9981 535.744 85.8644 533.052 87.2097C530.361 88.5556 527.175 89.2282 523.496 89.2282ZM568.147 89.2282C563.894 89.2282 560.233 88.3674 557.164 86.645C554.114 84.9044 551.763 82.4463 550.111 79.2701C548.461 76.0768 547.635 72.2994 547.635 67.9396C547.635 63.6872 548.461 59.9552 550.111 56.7435C551.763 53.5317 554.087 51.0287 557.083 49.2344C560.098 47.4402 563.634 46.5431 567.689 46.5431C570.417 46.5431 572.956 46.9827 575.307 47.8618C577.676 48.7231 579.74 50.0239 581.499 51.7643C583.275 53.5048 584.657 55.6938 585.644 58.3314C586.631 60.951 587.124 64.0194 587.124 67.536V70.6851H552.211V63.5798H576.33C576.33 61.9288 575.971 60.4665 575.254 59.1926C574.535 57.9186 573.54 56.9228 572.266 56.2052C571.009 55.4695 569.547 55.1017 567.878 55.1017C566.137 55.1017 564.594 55.5054 563.248 56.3128C561.92 57.1023 560.879 58.1699 560.126 59.5156C559.372 60.8433 558.986 62.3236 558.968 63.9562V70.7116C558.968 72.7573 559.345 74.5244 560.098 76.0137C560.87 77.5029 561.955 78.6512 563.355 79.4589C564.755 80.2661 566.415 80.6697 568.336 80.6697C569.61 80.6697 570.776 80.4903 571.835 80.1316C572.894 79.7728 573.8 79.2347 574.554 78.5166C575.307 77.7992 575.882 76.92 576.276 75.8792L586.882 76.5789C586.344 79.1267 585.24 81.3518 583.571 83.2535C581.92 85.1375 579.785 86.6091 577.165 87.6676C574.563 88.7084 571.556 89.2282 568.147 89.2282ZM629.009 58.8696L618.511 59.5156C618.332 58.6184 617.946 57.811 617.353 57.0933C616.762 56.3577 615.981 55.7745 615.012 55.3439C614.061 54.8953 612.921 54.6711 611.593 54.6711C609.817 54.6711 608.318 55.0479 607.098 55.8015C605.878 56.5371 605.267 57.5239 605.267 58.762C605.267 59.7488 605.662 60.5831 606.452 61.2649C607.242 61.9468 608.596 62.494 610.516 62.9067L618 64.4141C622.02 65.2389 625.016 66.5672 626.99 68.3968C628.964 70.2272 629.952 72.6316 629.952 75.6101C629.952 78.3196 629.153 80.6968 627.556 82.7425C625.977 84.7876 623.805 86.3848 621.041 87.5331C618.296 88.6636 615.129 89.2282 611.539 89.2282C606.066 89.2282 601.705 88.0888 598.457 85.8101C595.227 83.5137 593.334 80.3918 592.777 76.4444L604.056 75.852C604.397 77.5206 605.223 78.7952 606.533 79.6743C607.843 80.5352 609.521 80.9659 611.566 80.9659C613.576 80.9659 615.191 80.58 616.412 79.8088C617.65 79.0194 618.278 78.0057 618.296 76.7672C618.278 75.7269 617.838 74.8743 616.977 74.2105C616.115 73.5284 614.788 73.0086 612.993 72.6493L605.833 71.2232C601.795 70.4154 598.789 69.0164 596.815 67.0244C594.859 65.0331 593.881 62.494 593.881 59.4079C593.881 56.7524 594.599 54.4647 596.034 52.5448C597.488 50.625 599.525 49.1447 602.145 48.1041C604.783 47.0634 607.869 46.5431 611.405 46.5431C616.627 46.5431 620.736 47.6465 623.733 49.8535C626.749 52.0604 628.507 55.0658 629.009 58.8696Z" fill="#FAFAFA"/>
<path d="M25.2673 56.8421C25.2673 46.7918 29.2604 37.1531 36.3682 30.0465C43.476 22.9398 53.1163 18.9474 63.1683 18.9474H85.2772L87.1722 16.4211C89.5259 13.2835 92.5775 10.7368 96.0859 8.98289C99.5949 7.22893 103.463 6.3158 107.386 6.3158V25.2632C111.309 28.2047 114.493 32.0189 116.685 36.4038C118.878 40.7887 120.02 45.6238 120.02 50.5263H126.337C128.012 50.5263 129.619 51.1918 130.803 52.3762C131.988 53.5606 132.653 55.167 132.653 56.8421V69.4737C132.653 71.1486 131.988 72.7554 130.803 73.9396C129.619 75.1238 128.012 75.7895 126.337 75.7895H120.02C119.04 78.7314 117.388 81.4049 115.196 83.5977C113.002 85.7899 110.328 87.4415 107.386 88.4211V107.368C107.386 109.043 106.72 110.65 105.536 111.834C104.351 113.019 102.744 113.684 101.069 113.684H88.4356C86.7604 113.684 85.1534 113.019 83.969 111.834C82.7845 110.65 82.1188 109.043 82.1188 107.368V94.7369H63.1683V107.368C63.1683 109.043 62.5027 110.65 61.3181 111.834C60.1335 113.019 58.5268 113.684 56.8514 113.684H44.2178C42.5424 113.684 40.9357 113.019 39.7511 111.834C38.5665 110.65 37.9009 109.043 37.9009 107.368V88.4211C33.9783 85.4798 30.7945 81.6651 28.6017 77.2806C26.4089 72.8956 25.2673 68.0602 25.2673 63.1579V56.8421ZM25.2673 56.8421H18.9504C15.5998 56.8421 12.3864 55.5113 10.0171 53.1424C7.64779 50.7735 6.31677 47.5606 6.31677 44.2105V37.8947M94.7524 50.5263H94.8156" stroke="#FAFAFA" stroke-width="11" stroke-linecap="round" stroke-linejoin="round"/>
</svg>
